<?xml version="1.0" encoding="UTF-8"?>
<svg width="114px" height="39px" viewBox="0 0 114 39" version="1.1" xmlns="http://www.w3.org/2000/svg" xmlns:xlink="http://www.w3.org/1999/xlink">
    <!-- Generator: Sketch 57.1 (83088) - https://sketch.com -->
    <title>Druid BLACK</title>
    <desc>Created with Sketch.</desc>
    <g id="Frontpage" stroke="none" stroke-width="1" fill="none" fill-rule="evenodd">
        <g id="Desktop-HD" transform="translate(-128.000000, -35.000000)" fill-rule="nonzero">
            <g id="Header">
                <g id="Logo" transform="translate(127.000000, 34.000000)">
                    <g id="druidlogo_rgb">
                        <g id="Druid-BLACK" transform="translate(0.900000, 0.900000)">
                            <path d="M59.9,23 C59.9,24.6 59.6,26 59.1,27.4 C58.6,28.7 57.8,29.9 56.8,30.9 C55.8,31.9 54.6,32.6 53.2,33.2 C51.8,33.7 50.3,34 48.6,34 L41,34 L41,12.1 L48.6,12.1 C50.3,12.1 51.8,12.4 53.2,12.9 C54.6,13.4 55.8,14.2 56.8,15.2 C57.8,16.2 58.6,17.3 59.1,18.7 C59.6,20 59.9,21.4 59.9,23 Z M54.7,23 C54.7,21.9 54.6,20.9 54.3,20.1 C54,19.2 53.6,18.5 53.1,17.9 C52.6,17.3 51.9,16.8 51.2,16.5 C50.4,16.2 49.6,16 48.6,16 L46.1,16 L46.1,30 L48.6,30 C49.6,30 50.4,29.8 51.2,29.5 C52,29.2 52.6,28.7 53.1,28.1 C53.6,27.5 54,26.8 54.3,25.9 C54.5,25 54.7,24.1 54.7,23 Z" id="Shape" fill="#000000"></path>
                            <path d="M62,33.9 L62,18.4 L64.8,18.4 C65,18.4 65.2,18.4 65.4,18.5 C65.6,18.5 65.7,18.6 65.8,18.7 C65.9,18.8 66,18.9 66,19 C66.1,19.1 66.1,19.3 66.1,19.5 L66.4,21 C67,20.1 67.6,19.4 68.3,18.9 C69,18.4 69.8,18.1 70.6,18.1 C71.3,18.1 71.9,18.3 72.3,18.6 L71.7,22 C71.7,22.2 71.6,22.4 71.5,22.4 C71.4,22.5 71.2,22.5 71,22.5 C70.8,22.5 70.6,22.5 70.4,22.4 C70.2,22.4 69.9,22.3 69.5,22.3 C68.3,22.3 67.3,22.9 66.6,24.2 L66.6,33.7 L62,33.7 L62,33.9 Z" id="Path" fill="#000000"></path>
                            <path d="M79.3,18.4 L79.3,28.3 C79.3,29.1 79.5,29.7 79.8,30.1 C80.1,30.5 80.7,30.7 81.3,30.7 C81.8,30.7 82.3,30.6 82.7,30.4 C83.1,30.2 83.6,29.9 84,29.5 L84,18.4 L88.6,18.4 L88.6,33.9 L85.7,33.9 C85.1,33.9 84.7,33.6 84.6,33.1 L84.3,32.2 C84,32.5 83.7,32.8 83.4,33 C83.1,33.2 82.7,33.4 82.4,33.6 C82,33.8 81.6,33.9 81.2,34 C80.9,34.1 80.5,34.1 80,34.1 C79.2,34.1 78.4,34 77.7,33.7 C77,33.4 76.5,33 76,32.5 C75.6,32 75.2,31.3 75,30.6 C74.8,29.9 74.7,29.1 74.7,28.2 L74.7,18.3 L79.3,18.3 L79.3,18.4 Z" id="Path" fill="#000000"></path>
                            <polygon id="Path" fill="#000000" points="96.3 18.4 96.3 33.9 91.7 33.9 91.7 18.4"></polygon>
                            <path d="M110.6,33.9 C110.3,33.9 110.1,33.8 109.9,33.7 C109.7,33.6 109.6,33.4 109.5,33.1 L109.1,31.9 C108.8,32.2 108.5,32.5 108.1,32.8 C107.8,33.1 107.4,33.3 107,33.5 C106.6,33.7 106.2,33.8 105.7,33.9 C105.2,34 104.8,34.1 104.2,34.1 C103.4,34.1 102.6,33.9 102,33.6 C101.3,33.2 100.7,32.7 100.2,32 C99.7,31.3 99.3,30.5 99,29.5 C98.7,28.5 98.6,27.4 98.6,26.1 C98.6,24.9 98.8,23.9 99.1,22.9 C99.4,21.9 99.9,21 100.5,20.3 C101.1,19.6 101.8,19 102.6,18.6 C103.4,18.2 104.3,18 105.3,18 C106.1,18 106.8,18.1 107.3,18.4 C107.9,18.6 108.4,18.9 108.8,19.3 L108.8,11.4 L113.4,11.4 L113.4,33.8 L110.6,33.8 L110.6,33.9 Z M105.9,30.6 C106.2,30.6 106.5,30.6 106.8,30.5 C107.1,30.4 107.3,30.3 107.6,30.2 C107.8,30.1 108,29.9 108.3,29.8 C108.5,29.6 108.7,29.4 108.9,29.2 L108.9,22.6 C108.5,22.2 108.2,21.9 107.8,21.8 C107.4,21.6 107,21.6 106.5,21.6 C106.1,21.6 105.7,21.7 105.3,21.9 C104.9,22.1 104.6,22.3 104.4,22.7 C104.1,23.1 103.9,23.6 103.8,24.2 C103.7,24.8 103.6,25.5 103.6,26.4 C103.6,27.2 103.7,27.9 103.8,28.5 C103.9,29.1 104.1,29.5 104.3,29.9 C104.5,30.2 104.8,30.5 105.1,30.6 C105.2,30.5 105.5,30.6 105.9,30.6 Z" id="Shape" fill="#000000"></path>
                            <path d="M96.8,13.8 C96.8,14.2 96.7,14.5 96.6,14.8 C96.5,15.1 96.2,15.4 96,15.7 C95.7,15.9 95.4,16.1 95.1,16.3 C94.8,16.4 94.4,16.5 94,16.5 C93.6,16.5 93.3,16.4 92.9,16.3 C92.6,16.2 92.3,16 92,15.7 C91.7,15.5 91.5,15.2 91.4,14.8 C91.3,14.5 91.2,14.1 91.2,13.8 C91.2,13.4 91.3,13.1 91.4,12.7 C91.5,12.4 91.7,12.1 92,11.8 C92.3,11.6 92.5,11.4 92.9,11.2 C93.2,11.1 93.6,11 94,11 C94.4,11 94.8,11.1 95.1,11.2 C95.4,11.3 95.7,11.5 96,11.8 C96.3,12 96.5,12.3 96.6,12.7 C96.7,13 96.8,13.4 96.8,13.8 Z" id="Path" fill="#000000"></path>
                            <path d="M21.4,8.5 C18.6,5.7 16,3.1 15.2,0.1 C14.4,3.1 11.8,5.7 9,8.5 C4.8,12.7 0.1,17.4 0.1,24.4 C0.1,30.9 4.2,36.4 10,38.6 C11.4,34.1 13.5,27.1 13.6,24.2 C13.6,23.5 13.2,23.8 13.1,23.9 L13,24.1 C13,24.1 10.1,33.3 9.7,34.1 C9.5,34.6 9.2,34 9.2,34 L8.3,22.5 C8.3,22.5 8.2,22.4 8.2,22.4 C7.8,22.3 6.9,22 6.7,21.8 C6.5,21.6 6.1,21.5 6.1,21.4 C6,21.3 6.1,21.2 6.1,21.2 C6.1,21.2 5.9,21.1 6.1,21 C5.9,20.8 6.2,20.8 6.3,20.8 C6.2,20.6 6.5,20.6 6.5,20.6 C6.5,20.6 7,20.7 7.4,20.8 C7.3,20.7 7.5,20.5 7.6,20.6 C7.8,20.6 8.4,20.8 9,21.5 L10,21.3 C10,21.3 11.2,16.7 13.3,16.5 C12.9,14.4 13.9,12.9 14.2,12.7 C14.4,12.5 15.2,12.1 15.5,11.9 C15.9,12.3 17.5,13.4 18.6,15.2 C18.7,15.4 18.5,15.5 18.3,15.3 C18,15 17.5,14.6 17.4,14.7 C17.2,15 18.6,16.4 18.2,17.1 C20.9,18.5 21.3,22.6 21.9,23 C22.1,23.2 22.4,23.4 22.5,23.6 C22.7,23.4 23,23.1 23.2,22.9 C23.3,22.8 23.7,22.7 23.7,22.7 L23.7,22.7 C23.7,22.7 23.7,22.7 23.7,22.7 L23.7,22.7 C23.8,22.6 24,22.4 24.1,22.3 C24.2,22.2 24.2,22.3 24.2,22.3 C24.2,22.3 24.4,22.3 24.4,22.4 C24.5,22.4 24.5,22.5 24.4,22.7 C24.5,22.7 24.4,22.9 24.4,22.9 C24.4,22.9 24.3,23.2 24.2,23.4 C24.1,23.5 23.9,23.8 23.7,24 C23.5,24.1 23.2,24.2 22.8,24.3 L21.4,33.3 C21.4,33.3 20.9,34.1 20.9,33.2 C20.8,30.1 19,24.8 19,24.8 C19,24.8 18.5,24.2 18.6,24.8 C19.2,27.2 19.8,34.2 20.2,38.6 C25.9,36.4 30,30.9 30,24.5 C30.3,17.4 25.6,12.7 21.4,8.5 Z" id="Shape" fill="#FC421D"></path>
                        </g>
                    </g>
                </g>
            </g>
        </g>
    </g>
</svg>